<?xml version="1.0" encoding="UTF-8"?>
<svg width="131px" height="113px" viewBox="0 0 131 113" version="1.1" xmlns="http://www.w3.org/2000/svg" xmlns:xlink="http://www.w3.org/1999/xlink">
    <!-- Generator: Sketch 51.3 (57544) - http://www.bohemiancoding.com/sketch -->
    <title>Artboard</title>
    <desc>Created with Sketch.</desc>
    <defs></defs>
    <g id="Artboard" stroke="none" stroke-width="1">
        <path d="M13,108.720782 L20.0572001,93 L26,93 L26,93.6448342 L25.285461,93.6448342 C24.3334104,93.6448342 23.7090657,93.7224895 23.4144311,93.8758342 C23.1187943,94.0311449 22.9213691,94.3191577 22.8211533,94.7379068 C22.7209374,95.1586218 22.6718316,96.1573284 22.6718316,97.7359926 L22.6718316,107.05365 C22.6718316,108.549744 22.7099137,109.526825 22.7850755,109.990791 C22.8622418,110.452791 23.0546562,110.795851 23.3643232,111.020953 C23.672988,111.243106 24.2662658,111.356149 25.1431545,111.356149 L26,111.356149 L26,112 L16.743062,112 L16.743062,111.356149 L17.4285384,111.356149 C18.2473019,111.356149 18.8165279,111.252936 19.1362165,111.047493 C19.4539007,110.843034 19.6593432,110.522583 19.7495375,110.089089 C19.8397317,109.653629 19.885831,108.643127 19.885831,107.05365 L19.885831,94.963009 L12.2143077,112 L11.5428615,112 L3.81421523,94.963009 L3.81421523,106.086399 C3.81421523,107.610016 3.86231884,108.648042 3.9575239,109.196544 C4.05272895,109.748978 4.34736355,110.232604 4.84242985,110.647421 C5.3384983,111.065187 6.03299414,111.299136 6.92892384,111.356149 L6.92892384,112 L0,112 L0,111.356149 C0.828785076,111.308966 1.50223558,111.086813 2.02235584,110.691655 C2.54047179,110.293549 2.85715387,109.805008 2.97139994,109.227016 C3.08564601,108.648042 3.1437712,107.573646 3.1437712,106.003828 L3.1437712,97.7359926 C3.1437712,96.223188 3.09767191,95.2461069 3.00647549,94.8067153 C2.91728338,94.3692897 2.72687327,94.0645662 2.43524514,93.8964768 C2.14461918,93.7303534 1.50925069,93.6448342 0.529139685,93.6448342 L0,93.6448342 L0,93 L5.89970706,93 L13,108.720782" id="Fill-4" ></path>
        <path d="M48.3335363,106.086399 L49,106.086399 L48.5975885,112 L33,112 L33,111.356149 L33.3887705,111.356149 C34.3241581,111.356149 34.9282626,111.23131 35.201084,110.977702 C35.4748797,110.726059 35.6483162,110.405608 35.7223677,110.017331 C35.7964192,109.630038 35.833445,108.643127 35.833445,107.05365 L35.833445,97.7359926 C35.833445,96.2880646 35.7934961,95.3365409 35.7155472,94.8774898 C35.6366238,94.4204046 35.4553925,94.1009364 35.1738018,93.9181023 C34.8912368,93.7352682 34.296876,93.6448342 33.3887705,93.6448342 L33.3887705,93 L46.8466598,93 L47.2919432,97.7359926 L46.6391206,97.7359926 C46.3429146,96.409954 45.9794775,95.4682601 45.5488095,94.91386 C45.1181414,94.3574939 44.6066013,94.0055875 44.0141891,93.8620725 C43.421777,93.7175746 42.4669021,93.6448342 41.1524877,93.6448342 L38.5421716,93.6448342 L38.5421716,101.618759 L40.5415626,101.618759 C41.4584374,101.618759 42.0995676,101.538155 42.4649534,101.378913 C42.8313136,101.220653 43.071981,100.981789 43.1879301,100.659372 C43.3038792,100.336955 43.3613665,99.7068653 43.3613665,98.7740183 L44.0141891,98.7740183 L44.0141891,105.276424 L43.3613665,105.276424 C43.3613665,104.218739 43.2726996,103.510994 43.0973144,103.152207 C42.9209549,102.793419 42.6646976,102.558487 42.326594,102.451343 C41.9884903,102.344198 41.4175142,102.290134 40.6117167,102.290134 L38.5421716,102.290134 L38.5421716,106.787263 C38.5421716,109.038284 38.6854028,110.364323 38.9718653,110.759481 C39.2583278,111.157587 40.0319713,111.356149 41.2918214,111.356149 L42.6939285,111.356149 C43.6848548,111.356149 44.5003958,111.229345 45.1395774,110.969838 C45.7777845,110.713281 46.3867609,110.185421 46.9655319,109.388225 C47.544303,108.589063 48.0003045,107.488127 48.3335363,106.086399" id="Fill-5" ></path>
        <path d="M74,106.408816 L73.8532359,112 L57,112 L57,111.356149 L57.5860299,111.356149 C58.433772,111.356149 59.0218546,111.252936 59.3482251,111.047493 C59.6745955,110.843034 59.8839652,110.522583 59.9773605,110.089089 C60.0697295,109.653629 60.115914,108.643127 60.115914,107.05365 L60.115914,97.7359926 C60.115914,96.223188 60.0697295,95.2461069 59.9773605,94.8067153 C59.8839652,94.3692897 59.688964,94.0645662 59.3923569,93.8964768 C59.0947235,93.7303534 58.4430089,93.6448342 57.4392659,93.6448342 L57,93.6448342 L57,93 L66.5242695,93 L66.5242695,93.6448342 L65.6457377,93.6448342 C64.6707317,93.6448342 64.0323593,93.7224895 63.7295943,93.8758342 C63.4278556,94.0311449 63.2246438,94.3191577 63.1230379,94.7379068 C63.0204057,95.1586218 62.9690896,96.1573284 62.9690896,97.7359926 L62.9690896,107.685705 C62.9690896,109.057944 63.0080898,109.918051 63.0860903,110.264059 C63.1640908,110.609085 63.3755132,110.876455 63.72241,111.070102 C64.0682806,111.2608 64.8123642,111.356149 65.9536344,111.356149 L67.4613016,111.356149 C68.679546,111.356149 69.5847621,111.252936 70.1748974,111.047493 C70.7650326,110.843034 71.3254045,110.393812 71.8570394,109.702778 C72.3897006,109.011744 72.8730983,107.913757 73.3133905,106.408816 L74,106.408816" id="Fill-6" ></path>
        <path d="M84.2596359,102.971561 C84.2596359,106.072893 84.8774298,108.39989 86.1160116,109.955546 C87.3535954,111.510203 89.209971,112.28853 91.6851385,112.28853 C93.8568984,112.28853 95.5735469,111.510203 96.8360819,109.955546 C98.0966209,108.39989 98.7283874,106.082872 98.7283874,102.999501 C98.7283874,100.002944 98.1066014,97.7048845 96.8640274,96.109315 C95.6224514,94.509754 93.8199705,93.7114703 91.4585809,93.7114703 C89.1341191,93.7114703 87.3535954,94.4897969 86.1160116,96.0514394 C84.8774298,97.6100883 84.2596359,99.918126 84.2596359,102.971561 Z M81,102.872774 C81,99.8931797 81.9970534,97.5043157 83.988166,95.7021903 C85.9812747,93.9010627 88.4654246,93 91.4436101,93 C94.450739,93 96.9618364,93.8910842 98.9769022,95.6752482 C100.992966,97.4574166 102,99.8891882 102,102.971561 C102,105.959138 101.034884,108.37694 99.1046528,110.225964 C97.1744214,112.074989 94.6343805,113 91.4865263,113 C88.4225084,113 85.9084169,112.074989 83.9462478,110.225964 C81.9830807,108.37694 81,105.926209 81,102.872774 Z" id="Fill-7" ></path>
        <path d="M127.384113,113 L113.783999,94.6731577 L113.783999,108.241515 C113.783999,109.366395 113.83871,110.107885 113.947137,110.461939 C114.056558,110.819028 114.365923,111.145769 114.87722,111.442163 C115.387523,111.741591 116.15248,111.890294 117.175075,111.890294 L117.175075,112.55288 L110,112.55288 L110,111.890294 C110.917152,111.824541 111.615461,111.653584 112.096916,111.379445 C112.580361,111.103283 112.865852,110.808912 112.955379,110.493298 C113.0459,110.173638 113.090664,109.425067 113.090664,108.241515 L113.090664,97.8738051 C113.090664,96.3746396 113.022026,95.3701381 112.885747,94.8592889 C112.746483,94.352486 112.531619,94.0247332 112.233196,93.8790653 C111.933779,93.7354206 111.270286,93.6635982 110.240728,93.6635982 L110.240728,93 L115.911752,93 L127.298565,108.299176 L127.298565,96.6052805 C127.298565,95.7413889 127.211027,95.1354509 127.036948,94.7884781 C126.861873,94.4425168 126.503766,94.1683779 125.96561,93.967073 C125.42646,93.7637449 124.779878,93.6635982 124.022879,93.6635982 L124.022879,93 L131,93 L131,93.6635982 C130.187296,93.7303627 129.545687,93.8901927 129.077164,94.1410652 C128.61063,94.3899145 128.313202,94.6913661 128.18488,95.0393506 C128.057553,95.3923929 127.993889,95.9851803 127.993889,96.8217591 L127.993889,113 L127.384113,113" id="Fill-8" ></path>
        <path d="M99,36.9990062 C99,55.2236878 84.2260017,70 66.0014907,70 C47.7749921,70 33,55.2236878 33,36.9990062 C33,18.7753185 47.7749921,4 66.0014907,4 C84.2260017,4 99,18.7753185 99,36.9990062" id="Fill-9" ></path>
        <path d="M76.8904758,48.2521812 L76.8904758,28.4181932 C76.8904758,26.8023219 77.0130366,25.7055859 77.2561654,25.1310091 C76.7141078,25.1713303 76.3274931,25.3265668 76.0983144,25.5936946 C75.8671427,25.8598144 75.7256498,26.2297612 75.6708461,26.702527 C75.6170389,27.1752928 75.5901353,27.932323 75.5901353,28.9736174 L75.5901353,48.7864368 C75.5901353,49.7732976 75.4914888,50.4476694 75.2961887,50.81056 C75.0988956,51.1734506 74.6953417,51.5262609 74.0865233,51.8689909 L74.7969775,51.8689909 C75.7326248,51.8689909 76.3135431,51.598839 76.5447148,51.0565192 C76.7738935,50.5162154 76.8904758,49.581772 76.8904758,48.2521812 Z M51.9219464,25.1310091 L51.1696421,25.1310091 C52.0096322,25.4586187 52.6692685,25.915256 53.1505439,26.496889 C53.6308229,27.07953 54.1220626,27.9877646 54.6232666,29.2205847 L64.0295607,51.8689909 C64.3284896,51.3216309 64.477954,50.8418089 64.477954,50.4305329 C64.477954,50.0474817 64.3284896,49.4991136 64.0295607,48.7864368 L55.9445321,28.9322882 C55.4433281,27.6309222 54.9122312,26.6722861 54.350245,26.0553721 C53.7872623,25.4384581 52.9781616,25.1310091 51.9219464,25.1310091 Z M50.3376235,51.8689909 L54.6232666,51.8689909 C54.1360126,51.6089193 53.7404301,51.2490528 53.4355227,50.7893914 C53.1316117,50.3307379 52.9034294,49.7934582 52.7549614,49.1765442 C52.5646434,49.7390246 52.2697002,50.2359832 51.8711285,50.6664118 C51.4715602,51.0978484 50.9603919,51.4990441 50.3376235,51.8689909 Z M66.3462592,45.9710105 L75.2244457,24 L84,24 L84,25.1310091 C82.6328988,25.1441135 81.6713443,25.3225347 81.1163331,25.6652647 C80.5603255,26.0069867 80.2354895,26.5009211 80.1398323,27.145052 C80.0451715,27.7891828 79.9983393,28.9736174 79.9983393,30.7003719 L79.9983393,48.4578192 C79.9983393,49.3610136 80.1169144,50.0474817 80.3540646,50.5121833 C80.5902184,50.9778929 80.9728473,51.3044944 81.5019513,51.4889638 C82.030059,51.6734332 82.863074,51.8004449 84,51.8689909 L84,53 L70.8969526,53 L70.8969526,51.8689909 C72.197293,51.8558865 73.1389189,51.6915777 73.7208337,51.3760645 C74.3037449,51.0605513 74.6495059,50.639195 74.7571203,50.1119956 C74.8647347,49.5847961 74.9195383,48.7108346 74.9195383,47.4911189 L74.9195383,27.658139 L64.8227186,53 L63.6439425,53 L53.6696836,28.4595224 L53.6696836,45.2926066 C53.6696836,47.1836699 54.0244125,48.6604331 54.7358632,49.7218881 C55.4463174,50.7833432 56.6280827,51.4990441 58.2801628,51.8689909 L58.2801628,53 L48,53 L48,51.8689909 C49.4498049,51.7187945 50.5677987,51.1462338 51.3529851,50.1523167 C52.139168,49.1604157 52.5307648,47.766311 52.5307648,45.9710105 L52.5307648,26.8980847 C51.9757535,26.2811707 51.3121315,25.8225173 50.5398987,25.5211165 C49.7686623,25.2197157 48.9216973,25.0896799 48,25.1310091 L48,24 L57.2857261,24 L66.3462592,45.9710105 Z" id="Fill-10" fill="#FFFEF4"></path>
        <path d="M66.0009971,1.50664295 C46.4295955,1.50664295 30.5086372,17.4285984 30.5086372,37 C30.5086372,56.5714016 46.4295955,72.4913628 66.0009971,72.4913628 C85.5714016,72.4913628 101.491363,56.5714016 101.491363,37 C101.491363,17.4285984 85.5714016,1.50664295 66.0009971,1.50664295 Z M66.0009971,74 C45.5980004,74 29,57.4000054 29,37 C29,16.5980004 45.5980004,0 66.0009971,0 C86.4019996,0 103,16.5980004 103,37 C103,57.4000054 86.4019996,74 66.0009971,74 Z" id="Fill-11" ></path>
    </g>
</svg>